# xmcd
#
# Track frame offsets:
# 150
# 15059
# 25485
# 39593
# 49974
# 59738
# 71007
# 84768
# 96950
# 108317
# 118967
# 133369
# 143619
# 155650
# 167050
# 178881
# 188535
# 200605
# 214460
# 226934
# 239032
# 249008
# 261290
# 271709
# 284310
#
# Disc length: 3960 seconds
#
# Revision: 0
# Processed by: cddbd v1.5.1PL0 Copyright (c) Steve Scherf et al.
# Submitted via: Audion 3.0.2 (http://www.panic.com/audion/)
#
DISCID=710f7619
DTITLE=Carlos Gardel - 100 por Gardel (Disco 4)
DYEAR=1900
DGENRE=
TTITLE0=El dia que me quieras
TTITLE1=La ultima copa
TTITLE2=Yo no se que me han hecho tus ojos
TTITLE3=Amigazo
TTITLE4=Si soy asi
TTITLE5=Me da pena confesarlo
TTITLE6=Mano a mano
TTITLE7=Sus ojos se cerraron
TTITLE8=Contramarca
TTITLE9=Me enamore una vez
TTITLE10=Buenos aires
TTITLE11=Viejo Rincon
TTITLE12=Mañanita de Sol
TTITLE13=Pan
TTITLE14=Bandeneon Arrabalero
TTITLE15=Un tropezon
TTITLE16=Lejana tierra mia
TTITLE17=Senda Florifa
TTITLE18=Caminito soleado
TTITLE19=Principe
TTITLE20=La cumparsita
TTITLE21=Milonguita
TTITLE22=Callejera
TTITLE23=Almagro 
TTITLE24=Fea
EXTD=
EXTT0=
EXTT1=
EXTT2=
EXTT3=
EXTT4=
EXTT5=
EXTT6=
EXTT7=
EXTT8=
EXTT9=
EXTT10=
EXTT11=
EXTT12=
EXTT13=
EXTT14=
EXTT15=
EXTT16=
EXTT17=
EXTT18=
EXTT19=
EXTT20=
EXTT21=
EXTT22=
EXTT23=
EXTT24=
PLAYORDER=
